<svg width="1114" height="318" viewBox="0 0 1114 318" fill="none" xmlns="http://www.w3.org/2000/svg">
<path d="M355.256 253.94C355.256 258.699 353.62 262.666 350.35 265.839C347.133 268.957 342.2 270.516 335.55 270.516H324.593V294.396H317.152V237.199H335.55C341.982 237.199 346.861 238.758 350.186 241.877C353.566 244.995 355.256 249.016 355.256 253.94ZM335.55 264.362C339.693 264.362 342.745 263.459 344.708 261.654C346.67 259.848 347.651 257.277 347.651 253.94C347.651 246.882 343.617 243.354 335.55 243.354H324.593V264.362H335.55Z" fill="white" fill-opacity="0.3"/>
<path d="M371.944 256.73C373.253 254.159 375.106 252.162 377.504 250.739C379.957 249.317 382.928 248.606 386.417 248.606V256.32H384.455C376.114 256.32 371.944 260.86 371.944 269.942V294.396H364.504V249.426H371.944V256.73Z" fill="white" fill-opacity="0.3"/>
<path d="M435.89 270.188C435.89 271.61 435.808 273.115 435.645 274.701H399.831C400.103 279.133 401.602 282.607 404.328 285.123C407.108 287.585 410.46 288.816 414.385 288.816C417.601 288.816 420.272 288.077 422.398 286.6C424.579 285.069 426.105 283.044 426.977 280.528H434.99C433.791 284.85 431.393 288.378 427.795 291.114C424.197 293.794 419.727 295.135 414.385 295.135C410.133 295.135 406.318 294.177 402.938 292.263C399.613 290.348 396.996 287.64 395.088 284.139C393.18 280.583 392.226 276.479 392.226 271.829C392.226 267.179 393.153 263.103 395.006 259.602C396.86 256.101 399.449 253.42 402.774 251.56C406.154 249.645 410.024 248.688 414.385 248.688C418.637 248.688 422.398 249.618 425.669 251.478C428.94 253.338 431.447 255.909 433.192 259.192C434.99 262.42 435.89 266.085 435.89 270.188ZM428.204 268.629C428.204 265.784 427.577 263.35 426.323 261.325C425.069 259.246 423.352 257.687 421.172 256.648C419.046 255.554 416.675 255.007 414.058 255.007C410.297 255.007 407.081 256.21 404.41 258.617C401.793 261.024 400.294 264.362 399.912 268.629H428.204Z" fill="white" fill-opacity="0.3"/>
<path d="M442.931 271.747C442.931 267.152 443.858 263.131 445.712 259.684C447.565 256.183 450.1 253.475 453.316 251.56C456.586 249.645 460.239 248.688 464.273 248.688C467.761 248.688 471.005 249.508 474.003 251.15C477.001 252.736 479.29 254.842 480.871 257.468V233.671H488.394V294.396H480.871V285.944C479.399 288.625 477.219 290.84 474.33 292.591C471.441 294.287 468.061 295.135 464.191 295.135C460.212 295.135 456.586 294.15 453.316 292.181C450.1 290.211 447.565 287.448 445.712 283.892C443.858 280.336 442.931 276.288 442.931 271.747ZM480.871 271.829C480.871 268.437 480.19 265.483 478.827 262.967C477.464 260.45 475.611 258.535 473.267 257.222C470.977 255.855 468.443 255.171 465.663 255.171C462.883 255.171 460.348 255.827 458.058 257.14C455.769 258.453 453.943 260.368 452.58 262.885C451.217 265.401 450.536 268.355 450.536 271.747C450.536 275.194 451.217 278.203 452.58 280.774C453.943 283.291 455.769 285.233 458.058 286.6C460.348 287.913 462.883 288.57 465.663 288.57C468.443 288.57 470.977 287.913 473.267 286.6C475.611 285.233 477.464 283.291 478.827 280.774C480.19 278.203 480.871 275.221 480.871 271.829Z" fill="white" fill-opacity="0.3"/>
<path d="M504.811 242.123C503.394 242.123 502.195 241.631 501.213 240.646C500.232 239.661 499.741 238.457 499.741 237.035C499.741 235.613 500.232 234.409 501.213 233.424C502.195 232.44 503.394 231.947 504.811 231.947C506.174 231.947 507.319 232.44 508.245 233.424C509.227 234.409 509.717 235.613 509.717 237.035C509.717 238.457 509.227 239.661 508.245 240.646C507.319 241.631 506.174 242.123 504.811 242.123ZM508.409 249.426V294.396H500.968V249.426H508.409Z" fill="white" fill-opacity="0.3"/>
<path d="M518.31 271.829C518.31 267.179 519.237 263.131 521.09 259.684C522.944 256.183 525.506 253.475 528.776 251.56C532.102 249.645 535.89 248.688 540.142 248.688C545.648 248.688 550.172 250.028 553.715 252.709C557.313 255.39 559.685 259.11 560.829 263.869H552.816C552.053 261.134 550.554 258.973 548.319 257.386C546.138 255.8 543.413 255.007 540.142 255.007C535.89 255.007 532.456 256.484 529.839 259.438C527.223 262.337 525.915 266.468 525.915 271.829C525.915 277.245 527.223 281.43 529.839 284.385C532.456 287.339 535.89 288.816 540.142 288.816C543.413 288.816 546.138 288.05 548.319 286.518C550.499 284.986 551.998 282.798 552.816 279.953H560.829C559.63 284.549 557.231 288.242 553.634 291.032C550.036 293.767 545.539 295.135 540.142 295.135C535.89 295.135 532.102 294.177 528.776 292.263C525.506 290.348 522.944 287.64 521.09 284.139C519.237 280.637 518.31 276.534 518.31 271.829Z" fill="white" fill-opacity="0.3"/>
<path d="M579.834 255.581V282.087C579.834 284.275 580.297 285.834 581.224 286.764C582.15 287.64 583.758 288.077 586.048 288.077H591.526V294.396H584.821C580.679 294.396 577.571 293.439 575.5 291.524C573.428 289.609 572.393 286.464 572.393 282.087V255.581H566.587V249.426H572.393V238.102H579.834V249.426H591.526V255.581H579.834Z" fill="white" fill-opacity="0.3"/>
<path d="M602.913 294.889C601.496 294.889 600.296 294.396 599.315 293.411C598.334 292.427 597.843 291.223 597.843 289.801C597.843 288.378 598.334 287.175 599.315 286.19C600.296 285.205 601.496 284.713 602.913 284.713C604.276 284.713 605.42 285.205 606.347 286.19C607.328 287.175 607.819 288.378 607.819 289.801C607.819 291.223 607.328 292.427 606.347 293.411C605.42 294.396 604.276 294.889 602.913 294.889Z" fill="white" fill-opacity="0.3"/>
<path d="M711.137 237.199L694.62 294.396H686.279L673.033 248.36L659.296 294.396L651.038 294.478L635.093 237.199H643.025L655.453 285.698L669.19 237.199H677.53L690.613 285.534L703.123 237.199H711.137Z" fill="white" fill-opacity="0.3"/>
<path d="M723.122 242.123C721.705 242.123 720.506 241.631 719.525 240.646C718.544 239.661 718.053 238.457 718.053 237.035C718.053 235.613 718.544 234.409 719.525 233.424C720.506 232.44 721.705 231.947 723.122 231.947C724.485 231.947 725.63 232.44 726.557 233.424C727.538 234.409 728.028 235.613 728.028 237.035C728.028 238.457 727.538 239.661 726.557 240.646C725.63 241.631 724.485 242.123 723.122 242.123ZM726.72 249.426V294.396H719.279V249.426H726.72Z" fill="white" fill-opacity="0.3"/>
<path d="M761.234 248.606C766.685 248.606 771.1 250.274 774.48 253.612C777.859 256.894 779.549 261.654 779.549 267.89V294.396H772.19V268.957C772.19 264.471 771.073 261.052 768.838 258.699C766.603 256.292 763.55 255.089 759.68 255.089C755.755 255.089 752.621 256.32 750.277 258.781C747.987 261.243 746.843 264.827 746.843 269.532V294.396H739.402V249.426H746.843V255.827C748.314 253.529 750.304 251.751 752.811 250.493C755.374 249.235 758.181 248.606 761.234 248.606Z" fill="white" fill-opacity="0.3"/>
<path d="M794.075 294.889C792.658 294.889 791.459 294.396 790.477 293.411C789.496 292.427 789.005 291.223 789.005 289.801C789.005 288.378 789.496 287.175 790.477 286.19C791.459 285.205 792.658 284.713 794.075 284.713C795.438 284.713 796.582 285.205 797.509 286.19C798.49 287.175 798.981 288.378 798.981 289.801C798.981 291.223 798.49 292.427 797.509 293.411C796.582 294.396 795.438 294.889 794.075 294.889Z" fill="white" fill-opacity="0.3"/>
<path d="M860.679 294.396L847.106 271.009H838.112V294.396H830.671V237.199H849.068C853.375 237.199 857 237.938 859.943 239.415C862.942 240.892 865.176 242.889 866.648 245.405C868.12 247.922 868.856 250.794 868.856 254.022C868.856 257.961 867.711 261.435 865.422 264.444C863.187 267.453 859.807 269.449 855.283 270.434L869.592 294.396H860.679ZM838.112 265.018H849.068C853.102 265.018 856.128 264.033 858.144 262.064C860.161 260.04 861.17 257.359 861.17 254.022C861.17 250.63 860.161 248.004 858.144 246.144C856.182 244.284 853.157 243.354 849.068 243.354H838.112V265.018Z" fill="white" fill-opacity="0.3"/>
<path d="M921.301 270.188C921.301 271.61 921.219 273.115 921.056 274.701H885.242C885.515 279.133 887.014 282.607 889.739 285.123C892.519 287.585 895.872 288.816 899.796 288.816C903.013 288.816 905.684 288.077 907.81 286.6C909.99 285.069 911.516 283.044 912.389 280.528H920.402C919.203 284.85 916.804 288.378 913.206 291.114C909.609 293.794 905.138 295.135 899.796 295.135C895.544 295.135 891.729 294.177 888.349 292.263C885.024 290.348 882.407 287.64 880.499 284.139C878.592 280.583 877.638 276.479 877.638 271.829C877.638 267.179 878.564 263.103 880.418 259.602C882.271 256.101 884.86 253.42 888.186 251.56C891.565 249.645 895.435 248.688 899.796 248.688C904.048 248.688 907.81 249.618 911.08 251.478C914.351 253.338 916.858 255.909 918.603 259.192C920.402 262.42 921.301 266.085 921.301 270.188ZM913.615 268.629C913.615 265.784 912.988 263.35 911.734 261.325C910.481 259.246 908.764 257.687 906.583 256.648C904.457 255.554 902.086 255.007 899.469 255.007C895.708 255.007 892.492 256.21 889.821 258.617C887.204 261.024 885.705 264.362 885.324 268.629H913.615Z" fill="white" fill-opacity="0.3"/>
<path d="M938.564 257.715C940.035 255.143 942.216 253.01 945.105 251.314C948.048 249.563 951.455 248.688 955.326 248.688C959.305 248.688 962.903 249.645 966.119 251.56C969.39 253.475 971.952 256.183 973.805 259.684C975.659 263.131 976.585 267.152 976.585 271.747C976.585 276.288 975.659 280.336 973.805 283.892C971.952 287.448 969.39 290.211 966.119 292.181C962.903 294.15 959.305 295.135 955.326 295.135C951.51 295.135 948.13 294.287 945.187 292.591C942.298 290.84 940.09 288.679 938.564 286.108V315.732H931.123V249.426H938.564V257.715ZM968.981 271.747C968.981 268.355 968.299 265.401 966.937 262.885C965.574 260.368 963.72 258.453 961.377 257.14C959.087 255.827 956.552 255.171 953.772 255.171C951.047 255.171 948.512 255.855 946.168 257.222C943.878 258.535 942.025 260.477 940.608 263.049C939.245 265.565 938.564 268.492 938.564 271.829C938.564 275.221 939.245 278.203 940.608 280.774C942.025 283.291 943.878 285.233 946.168 286.6C948.512 287.913 951.047 288.57 953.772 288.57C956.552 288.57 959.087 287.913 961.377 286.6C963.72 285.233 965.574 283.291 966.937 280.774C968.299 278.203 968.981 275.194 968.981 271.747Z" fill="white" fill-opacity="0.3"/>
<path d="M1027.26 270.188C1027.26 271.61 1027.18 273.115 1027.02 274.701H991.204C991.476 279.133 992.975 282.607 995.701 285.123C998.481 287.585 1001.83 288.816 1005.76 288.816C1008.97 288.816 1011.65 288.077 1013.77 286.6C1015.95 285.069 1017.48 283.044 1018.35 280.528H1026.36C1025.16 284.85 1022.77 288.378 1019.17 291.114C1015.57 293.794 1011.1 295.135 1005.76 295.135C1001.51 295.135 997.69 294.177 994.311 292.263C990.986 290.348 988.369 287.64 986.461 284.139C984.553 280.583 983.599 276.479 983.599 271.829C983.599 267.179 984.526 263.103 986.379 259.602C988.233 256.101 990.822 253.42 994.147 251.56C997.527 249.645 1001.4 248.688 1005.76 248.688C1010.01 248.688 1013.77 249.618 1017.04 251.478C1020.31 253.338 1022.82 255.909 1024.56 259.192C1026.36 262.42 1027.26 266.085 1027.26 270.188ZM1019.58 268.629C1019.58 265.784 1018.95 263.35 1017.7 261.325C1016.44 259.246 1014.73 257.687 1012.54 256.648C1010.42 255.554 1008.05 255.007 1005.43 255.007C1001.67 255.007 998.453 256.21 995.782 258.617C993.166 261.024 991.667 264.362 991.285 268.629H1019.58Z" fill="white" fill-opacity="0.3"/>
<path d="M1034.3 271.747C1034.3 267.152 1035.23 263.131 1037.08 259.684C1038.94 256.183 1041.47 253.475 1044.69 251.56C1047.96 249.645 1051.58 248.688 1055.56 248.688C1059.49 248.688 1062.9 249.536 1065.78 251.232C1068.67 252.928 1070.83 255.061 1072.24 257.633V249.426H1079.77V294.396H1072.24V286.026C1070.77 288.652 1068.56 290.84 1065.62 292.591C1062.73 294.287 1059.35 295.135 1055.48 295.135C1051.5 295.135 1047.9 294.15 1044.69 292.181C1041.47 290.211 1038.94 287.448 1037.08 283.892C1035.23 280.336 1034.3 276.288 1034.3 271.747ZM1072.24 271.829C1072.24 268.437 1071.56 265.483 1070.2 262.967C1068.84 260.45 1066.98 258.535 1064.64 257.222C1062.35 255.855 1059.82 255.171 1057.04 255.171C1054.26 255.171 1051.72 255.827 1049.43 257.14C1047.14 258.453 1045.32 260.368 1043.95 262.885C1042.59 265.401 1041.91 268.355 1041.91 271.747C1041.91 275.194 1042.59 278.203 1043.95 280.774C1045.32 283.291 1047.14 285.233 1049.43 286.6C1051.72 287.913 1054.26 288.57 1057.04 288.57C1059.82 288.57 1062.35 287.913 1064.64 286.6C1066.98 285.233 1068.84 283.291 1070.2 280.774C1071.56 278.203 1072.24 275.221 1072.24 271.829Z" fill="white" fill-opacity="0.3"/>
<path d="M1101.42 255.581V282.087C1101.42 284.275 1101.88 285.834 1102.81 286.764C1103.73 287.64 1105.34 288.077 1107.63 288.077H1113.11V294.396H1106.4C1102.26 294.396 1099.15 293.439 1097.08 291.524C1095.01 289.609 1093.98 286.464 1093.98 282.087V255.581H1088.17V249.426H1093.98V238.102H1101.42V249.426H1113.11V255.581H1101.42Z" fill="white" fill-opacity="0.3"/>
<path d="M381.84 145.157C381.84 148.634 381.606 151.762 381.14 154.543H310.334C310.917 161.495 313.365 166.941 317.677 170.881C321.99 174.82 327.293 176.79 333.587 176.79C342.678 176.79 349.146 172.908 352.993 165.145H379.392C376.595 174.415 371.233 182.062 363.308 188.088C355.382 193.997 345.65 196.952 334.111 196.952C324.787 196.952 316.395 194.924 308.936 190.869C301.593 186.697 295.824 180.846 291.628 173.314C287.548 165.782 285.509 157.092 285.509 147.243C285.509 137.278 287.548 128.53 291.628 120.998C295.707 113.467 301.418 107.673 308.761 103.618C316.104 99.5621 324.554 97.5343 334.111 97.5343C343.319 97.5343 351.536 99.5041 358.762 103.444C366.105 107.383 371.758 113.003 375.72 120.303C379.8 127.487 381.84 135.772 381.84 145.157ZM356.489 138.205C356.373 131.948 354.1 126.966 349.671 123.258C345.242 119.434 339.822 117.522 333.412 117.522C327.351 117.522 322.223 119.376 318.027 123.084C313.948 126.676 311.442 131.716 310.509 138.205H356.489Z" fill="white"/>
<path d="M489.742 145.157C489.742 148.634 489.509 151.762 489.042 154.543H418.237C418.819 161.495 421.267 166.941 425.58 170.881C429.892 174.82 435.195 176.79 441.489 176.79C450.58 176.79 457.049 172.908 460.895 165.145H487.294C484.497 174.415 479.136 182.062 471.21 188.088C463.284 193.997 453.552 196.952 442.013 196.952C432.689 196.952 424.297 194.924 416.838 190.869C409.495 186.697 403.726 180.846 399.53 173.314C395.451 165.782 393.411 157.092 393.411 147.243C393.411 137.278 395.451 128.53 399.53 120.998C403.609 113.467 409.32 107.673 416.663 103.618C424.006 99.5621 432.456 97.5343 442.013 97.5343C451.221 97.5343 459.438 99.5041 466.664 103.444C474.007 107.383 479.66 113.003 483.623 120.303C487.702 127.487 489.742 135.772 489.742 145.157ZM464.392 138.205C464.275 131.948 462.002 126.966 457.573 123.258C453.144 119.434 447.725 117.522 441.314 117.522C435.253 117.522 430.125 119.376 425.929 123.084C421.85 126.676 419.344 131.716 418.412 138.205H464.392Z" fill="white"/>
<path d="M552.014 119.086H535.055V195.388H510.23V119.086H499.215V99.0986H510.23V94.232C510.23 82.4131 513.61 73.7228 520.37 68.161C527.13 62.5992 537.328 59.9921 550.965 60.3397V80.8489C545.021 80.733 540.883 81.7179 538.552 83.8036C536.221 85.8893 535.055 89.6551 535.055 95.101V99.0986H552.014V119.086Z" fill="white"/>
<path d="M657.912 145.157C657.912 148.634 657.679 151.762 657.213 154.543H586.407C586.99 161.495 589.438 166.941 593.75 170.881C598.062 174.82 603.366 176.79 609.659 176.79C618.751 176.79 625.219 172.908 629.066 165.145H655.465C652.667 174.415 647.306 182.062 639.38 188.088C631.455 193.997 621.723 196.952 610.184 196.952C600.86 196.952 592.468 194.924 585.009 190.869C577.666 186.697 571.896 180.846 567.701 173.314C563.621 165.782 561.582 157.092 561.582 147.243C561.582 137.278 563.621 128.53 567.701 120.998C571.78 113.467 577.491 107.673 584.834 103.618C592.177 99.5621 600.627 97.5343 610.184 97.5343C619.392 97.5343 627.609 99.5041 634.835 103.444C642.178 107.383 647.831 113.003 651.793 120.303C655.873 127.487 657.912 135.772 657.912 145.157ZM632.562 138.205C632.446 131.948 630.173 126.966 625.744 123.258C621.315 119.434 615.895 117.522 609.485 117.522C603.424 117.522 598.296 119.376 594.1 123.084C590.02 126.676 587.514 131.716 586.582 138.205H632.562Z" fill="white"/>
<path d="M700.254 114.046C703.401 108.948 707.48 104.95 712.492 102.053C717.62 99.1565 723.448 97.7081 729.975 97.7081V123.258H723.506C715.813 123.258 709.986 125.054 706.023 128.646C702.177 132.238 700.254 138.495 700.254 147.417V195.388H675.778V99.0986H700.254V114.046Z" fill="white"/>
<path d="M770.936 113.003C774.083 108.6 778.396 104.95 783.874 102.053C789.468 99.0407 795.82 97.5343 802.93 97.5343C811.205 97.5343 818.665 99.5621 825.308 103.618C832.068 107.673 837.372 113.467 841.218 120.998C845.181 128.414 847.162 137.046 847.162 146.895C847.162 156.744 845.181 165.493 841.218 173.14C837.372 180.672 832.068 186.523 825.308 190.695C818.665 194.866 811.205 196.952 802.93 196.952C795.82 196.952 789.527 195.503 784.049 192.607C778.687 189.71 774.316 186.06 770.936 181.657V227.072H746.46V99.0986H770.936V113.003ZM822.161 146.895C822.161 141.102 820.938 136.119 818.49 131.948C816.159 127.661 813.012 124.416 809.049 122.215C805.203 120.013 801.007 118.913 796.462 118.913C792.033 118.913 787.837 120.071 783.874 122.389C780.028 124.59 776.881 127.835 774.433 132.122C772.102 136.409 770.936 141.449 770.936 147.243C770.936 153.037 772.102 158.077 774.433 162.364C776.881 166.651 780.028 169.954 783.874 172.271C787.837 174.473 792.033 175.574 796.462 175.574C801.007 175.574 805.203 174.415 809.049 172.097C813.012 169.78 816.159 166.478 818.49 162.19C820.938 157.903 822.161 152.805 822.161 146.895Z" fill="white"/>
<path d="M907.956 196.952C898.632 196.952 890.24 194.924 882.781 190.869C875.321 186.697 869.435 180.846 865.123 173.314C860.927 165.782 858.829 157.092 858.829 147.243C858.829 137.394 860.985 128.704 865.298 121.172C869.727 113.64 875.729 107.847 883.305 103.791C890.881 99.62 899.331 97.5343 908.655 97.5343C917.98 97.5343 926.43 99.62 934.006 103.791C941.581 107.847 947.526 113.64 951.838 121.172C956.267 128.704 958.482 137.394 958.482 147.243C958.482 157.092 956.209 165.782 951.663 173.314C947.234 180.846 941.174 186.697 933.481 190.869C925.905 194.924 917.397 196.952 907.956 196.952ZM907.956 175.747C912.385 175.747 916.523 174.705 920.369 172.619C924.332 170.417 927.479 167.173 929.81 162.886C932.141 158.598 933.306 153.384 933.306 147.243C933.306 138.089 930.859 131.079 925.963 126.212C921.185 121.23 915.299 118.739 908.306 118.739C901.313 118.739 895.427 121.23 890.648 126.212C885.986 131.079 883.655 138.089 883.655 147.243C883.655 156.397 885.928 163.465 890.473 168.447C895.135 173.314 900.963 175.747 907.956 175.747Z" fill="white"/>
<path d="M1019.44 196.952C1010.12 196.952 1001.73 194.924 994.268 190.869C986.809 186.697 980.923 180.846 976.611 173.314C972.415 165.782 970.317 157.092 970.317 147.243C970.317 137.394 972.473 128.704 976.785 121.172C981.214 113.64 987.217 107.847 994.793 103.791C1002.37 99.62 1010.82 97.5343 1020.14 97.5343C1029.47 97.5343 1037.92 99.62 1045.49 103.791C1053.07 107.847 1059.01 113.64 1063.33 121.172C1067.75 128.704 1069.97 137.394 1069.97 147.243C1069.97 157.092 1067.7 165.782 1063.15 173.314C1058.72 180.846 1052.66 186.697 1044.97 190.869C1037.39 194.924 1028.88 196.952 1019.44 196.952ZM1019.44 175.747C1023.87 175.747 1028.01 174.705 1031.86 172.619C1035.82 170.417 1038.97 167.173 1041.3 162.886C1043.63 158.598 1044.79 153.384 1044.79 147.243C1044.79 138.089 1042.35 131.079 1037.45 126.212C1032.67 121.23 1026.79 118.739 1019.79 118.739C1012.8 118.739 1006.91 121.23 1002.14 126.212C997.473 131.079 995.142 138.089 995.142 147.243C995.142 156.397 997.415 163.465 1001.96 168.447C1006.62 173.314 1012.45 175.747 1019.44 175.747Z" fill="white"/>
<path d="M1112.4 35.5287V195.388H1087.92V35.5287H1112.4Z" fill="white"/>
<path d="M119.677 170.067C120.539 170.237 121.401 170.237 122.264 170.237C123.298 170.237 124.333 170.237 125.367 170.237C137.956 170.237 149.855 167.514 161.064 162.236C172.273 156.789 182.274 149.979 190.552 141.637C199.002 133.296 205.554 124.103 210.383 114.059C215.384 103.845 217.798 93.971 217.798 84.4377C217.798 77.6282 216.418 71.1592 213.832 64.8604C211.418 58.7319 207.451 53.2843 201.933 48.8581C196.587 44.2617 189.69 40.6867 181.067 37.9629C172.617 35.2391 162.616 33.8772 150.889 33.8772C137.784 33.8772 126.402 35.0689 116.745 37.4522C107.261 39.8355 99.1559 43.07 92.2581 46.8153C85.5327 50.7307 79.6696 55.1569 74.8411 60.0938C70.1851 65.0307 66.2189 70.308 62.5975 75.5854C59.3211 80.8627 56.217 85.9699 53.4579 91.077C50.6988 96.0139 47.7672 100.44 44.8357 104.356C41.9041 108.271 38.6277 111.335 35.0063 113.719C31.385 116.102 26.9014 117.294 21.5556 117.294C14.3129 117.294 8.96713 115.591 5.34579 112.016C1.72444 108.271 0 103.164 0 96.5246C0 90.396 1.72443 83.7568 5.00089 76.6068C8.44979 69.4569 13.2782 62.3069 19.4863 55.1569C25.8667 48.0069 33.6268 41.1974 42.7664 34.5582C51.9059 27.9189 62.0802 21.9606 73.4616 17.0237C84.8429 11.9166 97.4314 7.8309 110.882 4.76663C124.333 1.70235 138.646 0 153.648 0C168.479 0 182.447 1.87261 196.07 5.61783C209.693 9.36306 221.764 14.9809 232.111 22.3011C242.458 29.6213 250.735 38.8141 256.943 49.8796C263.151 60.945 266.255 74.0533 266.255 88.8639C266.255 98.9079 264.358 108.441 260.564 117.634C256.943 126.657 251.942 135.168 245.734 143.17C239.526 151.001 232.283 158.321 223.834 164.96C215.556 171.599 206.762 177.387 197.277 182.494C187.793 187.602 178.136 192.028 168.134 195.603C158.305 199.178 148.648 201.731 139.508 203.263C140.888 209.903 142.957 217.563 145.888 225.905C148.992 234.247 152.614 242.078 156.753 249.738C161.064 257.229 165.892 263.527 171.065 268.805C176.239 274.082 181.757 276.976 187.62 277.317C188.827 277.487 189.862 277.487 190.897 277.487C191.931 277.487 192.966 277.487 194.001 277.487C204.52 277.487 214.004 275.785 222.282 272.38C230.559 268.975 237.457 265.23 242.975 260.974C249.528 256.207 255.219 250.76 259.875 244.461C264.358 239.524 268.842 236.97 273.498 236.97C276.429 236.97 278.844 237.992 280.913 240.035C282.982 242.078 284.017 244.801 284.017 248.206C284.017 251.441 282.982 255.356 280.74 259.782C278.671 264.038 275.222 268.635 270.049 273.231C255.219 287.02 240.561 297.234 226.248 303.703C212.107 310.002 198.657 313.067 185.896 313.067C175.549 313.067 165.892 310.172 157.097 304.214C148.303 298.426 140.198 290.425 132.955 280.381C125.712 270.337 119.16 258.761 113.124 245.482C107.261 232.033 101.915 217.904 97.259 203.093C94.6723 208.881 91.9132 215.861 89.1541 223.862C86.3949 231.693 83.4634 239.864 80.1869 248.376C77.0829 256.888 73.634 265.23 70.1851 273.401C66.7362 281.573 62.9424 288.893 58.6313 295.532C54.4926 302.001 50.009 307.108 45.1806 311.194C40.3521 315.28 35.1788 317.152 29.4881 317.152C24.8321 317.152 21.0383 316.471 18.2792 314.939C15.3476 313.577 13.1058 311.705 11.5538 309.662C10.0018 307.449 8.79468 305.236 8.1049 302.512C7.58757 299.958 7.24269 297.575 7.24269 295.192C7.24269 291.957 7.76003 288.552 8.62225 285.148C9.48448 281.743 10.6916 278.508 12.2436 275.444L76.3931 159.683C81.9114 149.979 87.4296 140.616 92.9478 131.593C98.6385 122.401 103.984 114.399 109.158 107.42C114.503 100.44 119.504 94.8222 124.16 90.7365C128.989 86.4806 133.128 84.2675 136.921 84.2675C137.956 84.2675 139.163 84.4377 140.543 84.9484C141.922 85.2889 143.302 85.7996 144.509 86.821C145.716 87.6722 146.751 89.0341 147.613 90.9068C148.475 92.6091 148.992 94.8222 148.992 97.546C148.992 100.27 148.13 104.015 146.578 108.952C145.026 113.889 142.957 119.336 140.198 125.635C137.611 131.934 134.507 138.914 131.058 146.404C127.092 154.575 123.471 162.236 119.677 170.067Z" fill="url(#paint0_linear_548_26)"/>
<path d="M119.677 170.067C120.539 170.237 121.401 170.237 122.264 170.237C123.298 170.237 124.333 170.237 125.367 170.237C137.956 170.237 149.855 167.514 161.064 162.236C172.273 156.789 182.274 149.979 190.552 141.637C199.002 133.296 205.554 124.103 210.383 114.059C215.384 103.845 217.798 93.971 217.798 84.4377C217.798 77.6282 216.418 71.1592 213.832 64.8604C211.418 58.7319 207.451 53.2843 201.933 48.8581C196.587 44.2617 189.69 40.6867 181.067 37.9629C172.617 35.2391 162.616 33.8772 150.889 33.8772C137.784 33.8772 126.402 35.0689 116.745 37.4522C107.261 39.8355 99.1559 43.07 92.2581 46.8153C85.5327 50.7307 79.6696 55.1569 74.8411 60.0938C70.1851 65.0307 66.2189 70.308 62.5975 75.5854C59.3211 80.8627 56.217 85.9699 53.4579 91.077C50.6988 96.0139 47.7672 100.44 44.8357 104.356C41.9041 108.271 38.6277 111.335 35.0063 113.719C31.385 116.102 26.9014 117.294 21.5556 117.294C14.3129 117.294 8.96713 115.591 5.34579 112.016C1.72444 108.271 0 103.164 0 96.5246C0 90.396 1.72443 83.7568 5.00089 76.6068C8.44979 69.4569 13.2782 62.3069 19.4863 55.1569C25.8667 48.0069 33.6268 41.1974 42.7664 34.5582C51.9059 27.9189 62.0802 21.9606 73.4616 17.0237C84.8429 11.9166 97.4314 7.8309 110.882 4.76663C124.333 1.70235 138.646 0 153.648 0C168.479 0 182.447 1.87261 196.07 5.61783C209.693 9.36306 221.764 14.9809 232.111 22.3011C242.458 29.6213 250.735 38.8141 256.943 49.8796C263.151 60.945 266.255 74.0533 266.255 88.8639C266.255 98.9079 264.358 108.441 260.564 117.634C256.943 126.657 251.942 135.168 245.734 143.17C239.526 151.001 232.283 158.321 223.834 164.96C215.556 171.599 206.762 177.387 197.277 182.494C187.793 187.602 178.136 192.028 168.134 195.603C158.305 199.178 148.648 201.731 139.508 203.263C140.888 209.903 142.957 217.563 145.888 225.905C148.992 234.247 152.614 242.078 156.753 249.738C161.064 257.229 165.892 263.527 171.065 268.805C176.239 274.082 181.757 276.976 187.62 277.317C188.827 277.487 189.862 277.487 190.897 277.487C191.931 277.487 192.966 277.487 194.001 277.487C204.52 277.487 214.004 275.785 222.282 272.38C230.559 268.975 237.457 265.23 242.975 260.974C249.528 256.207 255.219 250.76 259.875 244.461C264.358 239.524 268.842 236.97 273.498 236.97C276.429 236.97 278.844 237.992 280.913 240.035C282.982 242.078 284.017 244.801 284.017 248.206C284.017 251.441 282.982 255.356 280.74 259.782C278.671 264.038 275.222 268.635 270.049 273.231C255.219 287.02 240.561 297.234 226.248 303.703C212.107 310.002 198.657 313.067 185.896 313.067C175.549 313.067 165.892 310.172 157.097 304.214C148.303 298.426 140.198 290.425 132.955 280.381C125.712 270.337 119.16 258.761 113.124 245.482C107.261 232.033 101.915 217.904 97.259 203.093C94.6723 208.881 91.9132 215.861 89.1541 223.862C86.3949 231.693 83.4634 239.864 80.1869 248.376C77.0829 256.888 73.634 265.23 70.1851 273.401C66.7362 281.573 62.9424 288.893 58.6313 295.532C54.4926 302.001 50.009 307.108 45.1806 311.194C40.3521 315.28 35.1788 317.152 29.4881 317.152C24.8321 317.152 21.0383 316.471 18.2792 314.939C15.3476 313.577 13.1058 311.705 11.5538 309.662C10.0018 307.449 8.79468 305.236 8.1049 302.512C7.58757 299.958 7.24269 297.575 7.24269 295.192C7.24269 291.957 7.76003 288.552 8.62225 285.148C9.48448 281.743 10.6916 278.508 12.2436 275.444L76.3931 159.683C81.9114 149.979 87.4296 140.616 92.9478 131.593C98.6385 122.401 103.984 114.399 109.158 107.42C114.503 100.44 119.504 94.8222 124.16 90.7365C128.989 86.4806 133.128 84.2675 136.921 84.2675C137.956 84.2675 139.163 84.4377 140.543 84.9484C141.922 85.2889 143.302 85.7996 144.509 86.821C145.716 87.6722 146.751 89.0341 147.613 90.9068C148.475 92.6091 148.992 94.8222 148.992 97.546C148.992 100.27 148.13 104.015 146.578 108.952C145.026 113.889 142.957 119.336 140.198 125.635C137.611 131.934 134.507 138.914 131.058 146.404C127.092 154.575 123.471 162.236 119.677 170.067Z" fill="url(#paint1_linear_548_26)"/>
<defs>
<linearGradient id="paint0_linear_548_26" x1="162.295" y1="-40.1458" x2="247.635" y2="299.562" gradientUnits="userSpaceOnUse">
<stop stop-color="#F948CB"/>
<stop offset="1" stop-color="#8050F6"/>
</linearGradient>
<linearGradient id="paint1_linear_548_26" x1="162.295" y1="-40.1458" x2="247.635" y2="299.562" gradientUnits="userSpaceOnUse">
<stop stop-color="#F948CB"/>
<stop offset="1" stop-color="#8050F6"/>
</linearGradient>
</defs>
</svg>
